<mxfile host="app.diagrams.net" modified="2023-01-17T14:20:58.472Z" agent="5.0 (Windows)" etag="OuopE-J5VT1n5nKgM2w9" version="20.8.3" type="github">
  <diagram id="C5RBs43oDa-KdzZeNtuy" name="Page-1">
    <mxGraphModel dx="2812" dy="2154" grid="1" gridSize="10" guides="1" tooltips="1" connect="1" arrows="1" fold="1" page="1" pageScale="1" pageWidth="827" pageHeight="1169" math="0" shadow="0">
      <root>
        <mxCell id="WIyWlLk6GJQsqaUBKTNV-0" />
        <mxCell id="WIyWlLk6GJQsqaUBKTNV-1" parent="WIyWlLk6GJQsqaUBKTNV-0" />
        <mxCell id="UPsKfftQwJRPj4qGPjUT-1" value="&lt;div&gt;Controller&lt;/div&gt;" style="swimlane;whiteSpace=wrap;html=1;fillColor=#fff2cc;strokeColor=#d6b656;gradientColor=none;swimlaneFillColor=#FFF2CC;" parent="WIyWlLk6GJQsqaUBKTNV-1" vertex="1">
          <mxGeometry x="-413" y="-270" width="720" height="640" as="geometry">
            <mxRectangle x="150" y="270" width="100" height="30" as="alternateBounds" />
          </mxGeometry>
        </mxCell>
        <mxCell id="dqEOBBH6msr6GjvKQdUE-1" value="&lt;p style=&quot;margin:0px;margin-top:4px;text-align:center;&quot;&gt;&lt;b&gt;database.DatabaseManager&lt;/b&gt;&lt;/p&gt;&lt;hr size=&quot;1&quot;&gt;&lt;hr size=&quot;1&quot;&gt;&lt;p style=&quot;margin:0px;margin-left:4px;&quot;&gt;+ getMessages(int idUser1, int idUser2)&lt;/p&gt;&lt;p style=&quot;margin:0px;margin-left:4px;&quot;&gt;+ insertNewUser(int id)&lt;/p&gt;&lt;p style=&quot;margin:0px;margin-left:4px;&quot;&gt;+ insertMessage(int id1, int id2, String message, int sentBy)&lt;br&gt;&lt;/p&gt;&lt;p style=&quot;margin:0px;margin-left:4px;&quot;&gt;&lt;br&gt;&lt;/p&gt;" style="verticalAlign=top;align=left;overflow=fill;fontSize=12;fontFamily=Helvetica;html=1;fillColor=#ffe6cc;strokeColor=#d79b00;" vertex="1" parent="UPsKfftQwJRPj4qGPjUT-1">
          <mxGeometry x="300" y="40" width="340" height="100" as="geometry" />
        </mxCell>
        <mxCell id="dqEOBBH6msr6GjvKQdUE-37" value="accepte UDPMessage" style="edgeStyle=orthogonalEdgeStyle;rounded=0;orthogonalLoop=1;jettySize=auto;html=1;exitX=0.5;exitY=1;exitDx=0;exitDy=0;entryX=0.25;entryY=0;entryDx=0;entryDy=0;" edge="1" parent="UPsKfftQwJRPj4qGPjUT-1" source="dqEOBBH6msr6GjvKQdUE-2" target="dqEOBBH6msr6GjvKQdUE-35">
          <mxGeometry x="-0.1939" y="-2" relative="1" as="geometry">
            <Array as="points">
              <mxPoint x="140" y="160" />
              <mxPoint x="95" y="160" />
            </Array>
            <mxPoint as="offset" />
          </mxGeometry>
        </mxCell>
        <mxCell id="dqEOBBH6msr6GjvKQdUE-2" value="&lt;p style=&quot;margin:0px;margin-top:4px;text-align:center;&quot;&gt;&lt;b&gt;networkManager.UDPServeur&lt;/b&gt;&lt;br&gt;&lt;/p&gt;&lt;hr size=&quot;1&quot;&gt;&lt;p style=&quot;margin:0px;margin-left:4px;&quot;&gt;- consumer&lt;br&gt;&lt;/p&gt;&lt;hr size=&quot;1&quot;&gt;&lt;p style=&quot;margin:0px;margin-left:4px;&quot;&gt;&lt;br&gt;&lt;/p&gt;" style="verticalAlign=top;align=left;overflow=fill;fontSize=12;fontFamily=Helvetica;html=1;fillColor=#ffe6cc;strokeColor=#d79b00;" vertex="1" parent="UPsKfftQwJRPj4qGPjUT-1">
          <mxGeometry x="40" y="50" width="200" height="70" as="geometry" />
        </mxCell>
        <mxCell id="dqEOBBH6msr6GjvKQdUE-7" value="accepte socket" style="edgeStyle=orthogonalEdgeStyle;rounded=0;orthogonalLoop=1;jettySize=auto;html=1;" edge="1" parent="UPsKfftQwJRPj4qGPjUT-1" source="dqEOBBH6msr6GjvKQdUE-3" target="dqEOBBH6msr6GjvKQdUE-4">
          <mxGeometry relative="1" as="geometry" />
        </mxCell>
        <mxCell id="dqEOBBH6msr6GjvKQdUE-3" value="&lt;p style=&quot;margin:0px;margin-top:4px;text-align:center;&quot;&gt;&lt;b&gt;networkManager.TCPServeur&lt;/b&gt;&lt;br&gt;&lt;/p&gt;&lt;hr size=&quot;1&quot;&gt;&lt;p style=&quot;margin:0px;margin-left:4px;&quot;&gt;- consumer&lt;br&gt;&lt;/p&gt;&lt;hr size=&quot;1&quot;&gt;&lt;p style=&quot;margin:0px;margin-left:4px;&quot;&gt;&lt;br&gt;&lt;/p&gt;" style="verticalAlign=top;align=left;overflow=fill;fontSize=12;fontFamily=Helvetica;html=1;fillColor=#ffe6cc;strokeColor=#d79b00;" vertex="1" parent="UPsKfftQwJRPj4qGPjUT-1">
          <mxGeometry x="460" y="200" width="200" height="70" as="geometry" />
        </mxCell>
        <mxCell id="dqEOBBH6msr6GjvKQdUE-32" value="utilise pour ouvrir conversation" style="edgeStyle=orthogonalEdgeStyle;rounded=0;orthogonalLoop=1;jettySize=auto;html=1;" edge="1" parent="UPsKfftQwJRPj4qGPjUT-1" source="dqEOBBH6msr6GjvKQdUE-4" target="dqEOBBH6msr6GjvKQdUE-31">
          <mxGeometry relative="1" as="geometry" />
        </mxCell>
        <mxCell id="dqEOBBH6msr6GjvKQdUE-4" value="&lt;p style=&quot;margin:0px;margin-top:4px;text-align:center;&quot;&gt;&lt;b&gt;conversation.ConversationManager&lt;/b&gt;&lt;/p&gt;&lt;hr size=&quot;1&quot;&gt;&lt;p style=&quot;margin:0px;margin-left:4px;&quot;&gt;- mapConversations&lt;/p&gt;&lt;p style=&quot;margin:0px;margin-left:4px;&quot;&gt;- sendDataMap&lt;/p&gt;&lt;p style=&quot;margin:0px;margin-left:4px;&quot;&gt;- receiveDataMap&lt;br&gt;&lt;/p&gt;&lt;hr size=&quot;1&quot;&gt;&lt;p style=&quot;margin:0px;margin-left:4px;&quot;&gt;+ createConversation(socket)&lt;/p&gt;&lt;p style=&quot;margin:0px;margin-left:4px;&quot;&gt;+ openConversation(id)&lt;br&gt;&lt;/p&gt;&lt;p style=&quot;margin:0px;margin-left:4px;&quot;&gt;+ closeConversation(id)&lt;br&gt;&lt;/p&gt;" style="verticalAlign=top;align=left;overflow=fill;fontSize=12;fontFamily=Helvetica;html=1;fillColor=#ffe6cc;strokeColor=#d79b00;" vertex="1" parent="UPsKfftQwJRPj4qGPjUT-1">
          <mxGeometry x="390" y="330" width="250" height="140" as="geometry" />
        </mxCell>
        <mxCell id="dqEOBBH6msr6GjvKQdUE-31" value="&lt;p style=&quot;margin:0px;margin-top:4px;text-align:center;&quot;&gt;&lt;b&gt;networkManager.TCPConnect&lt;/b&gt;&lt;/p&gt;&lt;hr size=&quot;1&quot;&gt;&lt;hr size=&quot;1&quot;&gt;&lt;p style=&quot;margin:0px;margin-left:4px;&quot;&gt;+ connectTo(InetAddress address) &lt;br&gt;&lt;/p&gt;" style="verticalAlign=top;align=left;overflow=fill;fontSize=12;fontFamily=Helvetica;html=1;fillColor=#ffe6cc;strokeColor=#d79b00;" vertex="1" parent="UPsKfftQwJRPj4qGPjUT-1">
          <mxGeometry x="410" y="530" width="210" height="60" as="geometry" />
        </mxCell>
        <mxCell id="dqEOBBH6msr6GjvKQdUE-34" value="&lt;p style=&quot;margin:0px;margin-top:4px;text-align:center;&quot;&gt;&lt;b&gt;chavardageManager.ChavardageManager&lt;/b&gt;&lt;br&gt;&lt;/p&gt;&lt;hr size=&quot;1&quot;&gt;&lt;hr size=&quot;1&quot;&gt;&lt;p style=&quot;margin:0px;margin-left:4px;&quot;&gt;+ connectToApp(UserItem myself)&lt;/p&gt;&lt;p style=&quot;margin:0px;margin-left:4px;&quot;&gt;+ notifyChangePseudo(UserItem myself)&lt;/p&gt;&lt;p style=&quot;margin:0px;margin-left:4px;&quot;&gt;+ disconnect(UserItem myself) &lt;br&gt;&lt;/p&gt;" style="verticalAlign=top;align=left;overflow=fill;fontSize=12;fontFamily=Helvetica;html=1;fillColor=#ffe6cc;strokeColor=#d79b00;" vertex="1" parent="UPsKfftQwJRPj4qGPjUT-1">
          <mxGeometry x="140" y="180" width="250" height="90" as="geometry" />
        </mxCell>
        <mxCell id="dqEOBBH6msr6GjvKQdUE-35" value="&lt;p style=&quot;margin:0px;margin-top:4px;text-align:center;&quot;&gt;&lt;b&gt;chavardageManager.GestionUDPMessage&lt;/b&gt;&lt;br&gt;&lt;/p&gt;&lt;hr size=&quot;1&quot;&gt;&lt;hr size=&quot;1&quot;&gt;" style="verticalAlign=top;align=left;overflow=fill;fontSize=12;fontFamily=Helvetica;html=1;fillColor=#ffe6cc;strokeColor=#d79b00;" vertex="1" parent="UPsKfftQwJRPj4qGPjUT-1">
          <mxGeometry x="33" y="310" width="250" height="40" as="geometry" />
        </mxCell>
        <mxCell id="UPsKfftQwJRPj4qGPjUT-2" value="&lt;div&gt;Views&lt;/div&gt;" style="swimlane;whiteSpace=wrap;html=1;fillColor=#e1d5e7;strokeColor=#9673a6;swimlaneFillColor=#E1D5E7;" parent="WIyWlLk6GJQsqaUBKTNV-1" vertex="1">
          <mxGeometry x="230" y="450" width="570" height="340" as="geometry">
            <mxRectangle x="150" y="270" width="100" height="30" as="alternateBounds" />
          </mxGeometry>
        </mxCell>
        <mxCell id="UPsKfftQwJRPj4qGPjUT-47" value="&lt;p style=&quot;margin:0px;margin-top:4px;text-align:center;&quot;&gt;&lt;b&gt;GUI.Loged&lt;/b&gt;&lt;br&gt;&lt;/p&gt;&lt;hr size=&quot;1&quot;&gt;&lt;div&gt;+ addUserConnected(int id)&lt;/div&gt;&lt;div&gt;+ deleteUserConnected(int id)&lt;/div&gt;&lt;div&gt;+ changeUserPseudo(int id, String pseudo)&lt;/div&gt;&lt;div&gt;&lt;br&gt;&lt;/div&gt;&lt;hr size=&quot;1&quot;&gt;" style="verticalAlign=top;align=left;overflow=fill;fontSize=12;fontFamily=Helvetica;html=1;fillColor=#C3ABD0;" parent="UPsKfftQwJRPj4qGPjUT-2" vertex="1">
          <mxGeometry x="20" y="195" width="250" height="95" as="geometry" />
        </mxCell>
        <mxCell id="GiMUJ_xKoqUu7y3irece-8" value="&lt;p style=&quot;margin:0px;margin-top:4px;text-align:center;&quot;&gt;&lt;b&gt;GUI.Main&lt;/b&gt;&lt;/p&gt;&lt;hr size=&quot;1&quot;&gt;&lt;hr size=&quot;1&quot;&gt;&lt;p style=&quot;margin:0px;margin-left:4px;&quot;&gt;+ start()&lt;/p&gt;&lt;p style=&quot;margin:0px;margin-left:4px;&quot;&gt;+ loggedScene()&lt;/p&gt;&lt;p style=&quot;margin:0px;margin-left:4px;&quot;&gt;+ loginScene()&lt;br&gt;&lt;/p&gt;&lt;p style=&quot;margin:0px;margin-left:4px;&quot;&gt;+ main() &lt;br&gt;&lt;/p&gt;" style="verticalAlign=top;align=left;overflow=fill;fontSize=12;fontFamily=Helvetica;html=1;fillColor=#C3ABD0;" parent="UPsKfftQwJRPj4qGPjUT-2" vertex="1">
          <mxGeometry x="190" y="45" width="160" height="105" as="geometry" />
        </mxCell>
        <mxCell id="UPsKfftQwJRPj4qGPjUT-19" value="&lt;p style=&quot;margin:0px;margin-top:4px;text-align:center;&quot;&gt;&lt;b&gt;GUI.Login&lt;/b&gt;&lt;/p&gt;&lt;hr size=&quot;1&quot;&gt;&lt;hr size=&quot;1&quot;&gt;&lt;p style=&quot;margin:0px;margin-left:4px;&quot;&gt;+ checkLogin()&lt;/p&gt;" style="verticalAlign=top;align=left;overflow=fill;fontSize=12;fontFamily=Helvetica;html=1;fillColor=#C3ABD0;" parent="UPsKfftQwJRPj4qGPjUT-2" vertex="1">
          <mxGeometry x="320" y="195" width="160" height="90" as="geometry" />
        </mxCell>
        <mxCell id="UPsKfftQwJRPj4qGPjUT-3" value="Model" style="swimlane;whiteSpace=wrap;html=1;fillColor=#dae8fc;strokeColor=#6c8ebf;swimlaneFillColor=#D4E1F5;" parent="WIyWlLk6GJQsqaUBKTNV-1" vertex="1">
          <mxGeometry x="400" y="-325" width="1340" height="700" as="geometry">
            <mxRectangle x="150" y="270" width="100" height="30" as="alternateBounds" />
          </mxGeometry>
        </mxCell>
        <mxCell id="UPsKfftQwJRPj4qGPjUT-10" value="&lt;p style=&quot;margin:0px;margin-top:4px;text-align:center;&quot;&gt;&lt;b&gt;conversation.Conversation&lt;/b&gt;&lt;/p&gt;&lt;hr size=&quot;1&quot;&gt;&lt;p style=&quot;margin:0px;margin-left:4px;&quot;&gt;- int destinataireId &lt;br&gt;&lt;/p&gt;&lt;hr size=&quot;1&quot;&gt;&lt;p style=&quot;margin:0px;margin-left:4px;&quot;&gt;&lt;br&gt;&lt;/p&gt;" style="verticalAlign=top;align=left;overflow=fill;fontSize=12;fontFamily=Helvetica;html=1;fillColor=#7EA6E0;" parent="UPsKfftQwJRPj4qGPjUT-3" vertex="1">
          <mxGeometry x="90" y="220" width="250" height="70" as="geometry" />
        </mxCell>
        <mxCell id="UPsKfftQwJRPj4qGPjUT-35" value="&lt;p style=&quot;margin:0px;margin-top:4px;text-align:center;&quot;&gt;&lt;b&gt;message.TCPMessage&lt;/b&gt;&lt;br&gt;&lt;/p&gt;&lt;hr size=&quot;1&quot;&gt;&lt;p style=&quot;margin:0px;margin-left:4px;&quot;&gt;- TCPType type&lt;br&gt;&lt;/p&gt;&lt;p style=&quot;margin:0px;margin-left:4px;&quot;&gt;- int envoyeurId&lt;/p&gt;&lt;p style=&quot;margin:0px;margin-left:4px;&quot;&gt;- int destinataireId&lt;br&gt;&lt;/p&gt;&lt;p style=&quot;margin:0px;margin-left:4px;&quot;&gt;- Date date&lt;/p&gt;&lt;p style=&quot;margin:0px;margin-left:4px;&quot;&gt;- String texte&lt;/p&gt;&lt;hr size=&quot;1&quot;&gt;&lt;p style=&quot;margin:0px;margin-left:4px;&quot;&gt;&lt;br&gt;&lt;/p&gt;" style="verticalAlign=top;align=left;overflow=fill;fontSize=12;fontFamily=Helvetica;html=1;fillColor=#7EA6E0;" parent="UPsKfftQwJRPj4qGPjUT-3" vertex="1">
          <mxGeometry x="710" y="400" width="170" height="130" as="geometry" />
        </mxCell>
        <mxCell id="UPsKfftQwJRPj4qGPjUT-41" value="&lt;b&gt;UDPType&lt;/b&gt;" style="swimlane;fontStyle=0;childLayout=stackLayout;horizontal=1;startSize=40;horizontalStack=0;resizeParent=1;resizeParentMax=0;resizeLast=0;collapsible=1;marginBottom=0;whiteSpace=wrap;html=1;fillColor=#7EA6E0;" parent="UPsKfftQwJRPj4qGPjUT-3" vertex="1">
          <mxGeometry x="1106" y="40" width="170" height="280" as="geometry" />
        </mxCell>
        <mxCell id="UPsKfftQwJRPj4qGPjUT-42" value="DemandeConnexion" style="text;strokeColor=none;fillColor=none;align=left;verticalAlign=middle;spacingLeft=4;spacingRight=4;overflow=hidden;points=[[0,0.5],[1,0.5]];portConstraint=eastwest;rotatable=0;whiteSpace=wrap;html=1;" parent="UPsKfftQwJRPj4qGPjUT-41" vertex="1">
          <mxGeometry y="40" width="170" height="30" as="geometry" />
        </mxCell>
        <mxCell id="UPsKfftQwJRPj4qGPjUT-43" value="AckPseudoOk" style="text;strokeColor=none;fillColor=none;align=left;verticalAlign=middle;spacingLeft=4;spacingRight=4;overflow=hidden;points=[[0,0.5],[1,0.5]];portConstraint=eastwest;rotatable=0;whiteSpace=wrap;html=1;" parent="UPsKfftQwJRPj4qGPjUT-41" vertex="1">
          <mxGeometry y="70" width="170" height="30" as="geometry" />
        </mxCell>
        <mxCell id="UPsKfftQwJRPj4qGPjUT-44" value="AckPseudoPasOk" style="text;strokeColor=none;fillColor=none;align=left;verticalAlign=middle;spacingLeft=4;spacingRight=4;overflow=hidden;points=[[0,0.5],[1,0.5]];portConstraint=eastwest;rotatable=0;whiteSpace=wrap;html=1;" parent="UPsKfftQwJRPj4qGPjUT-41" vertex="1">
          <mxGeometry y="100" width="170" height="30" as="geometry" />
        </mxCell>
        <mxCell id="UPsKfftQwJRPj4qGPjUT-65" value="AlreadyConnected" style="text;strokeColor=none;fillColor=none;align=left;verticalAlign=middle;spacingLeft=4;spacingRight=4;overflow=hidden;points=[[0,0.5],[1,0.5]];portConstraint=eastwest;rotatable=0;whiteSpace=wrap;html=1;" parent="UPsKfftQwJRPj4qGPjUT-41" vertex="1">
          <mxGeometry y="130" width="170" height="30" as="geometry" />
        </mxCell>
        <mxCell id="SIAMkjv2Gq026-A7u568-9" value="Usurpateur" style="text;strokeColor=none;fillColor=none;align=left;verticalAlign=middle;spacingLeft=4;spacingRight=4;overflow=hidden;points=[[0,0.5],[1,0.5]];portConstraint=eastwest;rotatable=0;whiteSpace=wrap;html=1;" parent="UPsKfftQwJRPj4qGPjUT-41" vertex="1">
          <mxGeometry y="160" width="170" height="30" as="geometry" />
        </mxCell>
        <mxCell id="SIAMkjv2Gq026-A7u568-10" value="NewUser" style="text;strokeColor=none;fillColor=none;align=left;verticalAlign=middle;spacingLeft=4;spacingRight=4;overflow=hidden;points=[[0,0.5],[1,0.5]];portConstraint=eastwest;rotatable=0;whiteSpace=wrap;html=1;" parent="UPsKfftQwJRPj4qGPjUT-41" vertex="1">
          <mxGeometry y="190" width="170" height="30" as="geometry" />
        </mxCell>
        <mxCell id="dqEOBBH6msr6GjvKQdUE-16" value="ChangementPseudo" style="text;strokeColor=none;fillColor=none;align=left;verticalAlign=middle;spacingLeft=4;spacingRight=4;overflow=hidden;points=[[0,0.5],[1,0.5]];portConstraint=eastwest;rotatable=0;whiteSpace=wrap;html=1;" vertex="1" parent="UPsKfftQwJRPj4qGPjUT-41">
          <mxGeometry y="220" width="170" height="30" as="geometry" />
        </mxCell>
        <mxCell id="GiMUJ_xKoqUu7y3irece-7" value="Deconnexion" style="text;strokeColor=none;fillColor=none;align=left;verticalAlign=middle;spacingLeft=4;spacingRight=4;overflow=hidden;points=[[0,0.5],[1,0.5]];portConstraint=eastwest;rotatable=0;whiteSpace=wrap;html=1;" parent="UPsKfftQwJRPj4qGPjUT-41" vertex="1">
          <mxGeometry y="250" width="170" height="30" as="geometry" />
        </mxCell>
        <mxCell id="dqEOBBH6msr6GjvKQdUE-14" value="contient" style="edgeStyle=orthogonalEdgeStyle;rounded=0;orthogonalLoop=1;jettySize=auto;html=1;entryX=1;entryY=0.5;entryDx=0;entryDy=0;" edge="1" parent="UPsKfftQwJRPj4qGPjUT-3" source="UPsKfftQwJRPj4qGPjUT-67" target="dqEOBBH6msr6GjvKQdUE-13">
          <mxGeometry relative="1" as="geometry" />
        </mxCell>
        <mxCell id="UPsKfftQwJRPj4qGPjUT-67" value="&lt;p style=&quot;margin:0px;margin-top:4px;text-align:center;&quot;&gt;&lt;b&gt;userList.ListeUser&lt;/b&gt;&lt;br&gt;&lt;/p&gt;&lt;hr size=&quot;1&quot;&gt;&lt;p style=&quot;margin:0px;margin-left:4px;&quot;&gt;- listeUser&lt;br&gt;&lt;/p&gt;&lt;hr size=&quot;1&quot;&gt;&lt;p style=&quot;margin:0px;margin-left:4px;&quot;&gt;&lt;br&gt;&lt;/p&gt;" style="verticalAlign=top;align=left;overflow=fill;fontSize=12;fontFamily=Helvetica;html=1;fillColor=#7EA6E0;" parent="UPsKfftQwJRPj4qGPjUT-3" vertex="1">
          <mxGeometry x="800" y="70" width="160" height="65" as="geometry" />
        </mxCell>
        <mxCell id="dqEOBBH6msr6GjvKQdUE-9" value="&lt;p style=&quot;margin:0px;margin-top:4px;text-align:center;&quot;&gt;&lt;b&gt;networkManager.TCPSendData&lt;/b&gt;&lt;br&gt;&lt;/p&gt;&lt;hr size=&quot;1&quot;&gt;- socket&lt;br&gt;&lt;hr size=&quot;1&quot;&gt;&lt;p style=&quot;margin:0px;margin-left:4px;&quot;&gt;+ envoyer(tcpMessage)&lt;br&gt;&lt;/p&gt;" style="verticalAlign=top;align=left;overflow=fill;fontSize=12;fontFamily=Helvetica;html=1;fillColor=#7EA6E0;" vertex="1" parent="UPsKfftQwJRPj4qGPjUT-3">
          <mxGeometry x="113" y="335" width="204" height="102.5" as="geometry" />
        </mxCell>
        <mxCell id="dqEOBBH6msr6GjvKQdUE-10" value="&lt;p style=&quot;margin:0px;margin-top:4px;text-align:center;&quot;&gt;&lt;b&gt;networkManager.TCPReceiveData&lt;/b&gt;&lt;br&gt;&lt;/p&gt;&lt;hr size=&quot;1&quot;&gt;&lt;div&gt;- socket&lt;/div&gt;&lt;div&gt;- consumer&lt;br&gt;&lt;/div&gt;&lt;hr size=&quot;1&quot;&gt;" style="verticalAlign=top;align=left;overflow=fill;fontSize=12;fontFamily=Helvetica;html=1;fillColor=#7EA6E0;" vertex="1" parent="UPsKfftQwJRPj4qGPjUT-3">
          <mxGeometry x="113" y="482.5" width="204" height="77.5" as="geometry" />
        </mxCell>
        <mxCell id="dqEOBBH6msr6GjvKQdUE-13" value="&lt;p style=&quot;margin:0px;margin-top:4px;text-align:center;&quot;&gt;&lt;b&gt;userList.UserItem&lt;/b&gt;&lt;/p&gt;&lt;hr size=&quot;1&quot;&gt;&lt;p style=&quot;margin:0px;margin-left:4px;&quot;&gt;- int id&lt;/p&gt;&lt;p style=&quot;margin:0px;margin-left:4px;&quot;&gt;- String pseudo&lt;/p&gt;&lt;p style=&quot;margin:0px;margin-left:4px;&quot;&gt;- InetAddress address &lt;br&gt;&lt;/p&gt;&lt;hr size=&quot;1&quot;&gt;&lt;p style=&quot;margin:0px;margin-left:4px;&quot;&gt;&lt;br&gt;&lt;/p&gt;" style="verticalAlign=top;align=left;overflow=fill;fontSize=12;fontFamily=Helvetica;html=1;fillColor=#7EA6E0;" vertex="1" parent="UPsKfftQwJRPj4qGPjUT-3">
          <mxGeometry x="400" y="55" width="240" height="95" as="geometry" />
        </mxCell>
        <mxCell id="dqEOBBH6msr6GjvKQdUE-15" value="&lt;p style=&quot;margin:0px;margin-top:4px;text-align:center;&quot;&gt;&lt;b&gt;message.UDPMessage&lt;/b&gt;&lt;br&gt;&lt;/p&gt;&lt;hr size=&quot;1&quot;&gt;&lt;p style=&quot;margin:0px;margin-left:4px;&quot;&gt;- UserItem envoyeur&lt;/p&gt;&lt;p style=&quot;margin:0px;margin-left:4px;&quot;&gt;- UDPType controlType&lt;br&gt;&lt;/p&gt;&lt;hr size=&quot;1&quot;&gt;&lt;p style=&quot;margin:0px;margin-left:4px;&quot;&gt;&lt;br&gt;&lt;/p&gt;" style="verticalAlign=top;align=left;overflow=fill;fontSize=12;fontFamily=Helvetica;html=1;fillColor=#7EA6E0;" vertex="1" parent="UPsKfftQwJRPj4qGPjUT-3">
          <mxGeometry x="940" y="395" width="170" height="75" as="geometry" />
        </mxCell>
        <mxCell id="dqEOBBH6msr6GjvKQdUE-17" value="&lt;b&gt;TCPType&lt;/b&gt;" style="swimlane;fontStyle=0;childLayout=stackLayout;horizontal=1;startSize=40;horizontalStack=0;resizeParent=1;resizeParentMax=0;resizeLast=0;collapsible=1;marginBottom=0;whiteSpace=wrap;html=1;fillColor=#7EA6E0;" vertex="1" parent="UPsKfftQwJRPj4qGPjUT-3">
          <mxGeometry x="1130" y="365" width="170" height="130" as="geometry" />
        </mxCell>
        <mxCell id="dqEOBBH6msr6GjvKQdUE-18" value="OuvertureSession" style="text;strokeColor=none;fillColor=none;align=left;verticalAlign=middle;spacingLeft=4;spacingRight=4;overflow=hidden;points=[[0,0.5],[1,0.5]];portConstraint=eastwest;rotatable=0;whiteSpace=wrap;html=1;" vertex="1" parent="dqEOBBH6msr6GjvKQdUE-17">
          <mxGeometry y="40" width="170" height="30" as="geometry" />
        </mxCell>
        <mxCell id="dqEOBBH6msr6GjvKQdUE-19" value="FermetureSession" style="text;strokeColor=none;fillColor=none;align=left;verticalAlign=middle;spacingLeft=4;spacingRight=4;overflow=hidden;points=[[0,0.5],[1,0.5]];portConstraint=eastwest;rotatable=0;whiteSpace=wrap;html=1;" vertex="1" parent="dqEOBBH6msr6GjvKQdUE-17">
          <mxGeometry y="70" width="170" height="30" as="geometry" />
        </mxCell>
        <mxCell id="dqEOBBH6msr6GjvKQdUE-20" value="UserData" style="text;strokeColor=none;fillColor=none;align=left;verticalAlign=middle;spacingLeft=4;spacingRight=4;overflow=hidden;points=[[0,0.5],[1,0.5]];portConstraint=eastwest;rotatable=0;whiteSpace=wrap;html=1;" vertex="1" parent="dqEOBBH6msr6GjvKQdUE-17">
          <mxGeometry y="100" width="170" height="30" as="geometry" />
        </mxCell>
        <mxCell id="dqEOBBH6msr6GjvKQdUE-27" value="gère les listes de " style="edgeStyle=orthogonalEdgeStyle;rounded=0;orthogonalLoop=1;jettySize=auto;html=1;exitX=1;exitY=0.5;exitDx=0;exitDy=0;" edge="1" parent="WIyWlLk6GJQsqaUBKTNV-1" source="dqEOBBH6msr6GjvKQdUE-4">
          <mxGeometry x="-0.516" y="20" relative="1" as="geometry">
            <mxPoint x="510" y="200" as="targetPoint" />
            <mxPoint as="offset" />
          </mxGeometry>
        </mxCell>
        <mxCell id="dqEOBBH6msr6GjvKQdUE-28" style="edgeStyle=orthogonalEdgeStyle;rounded=0;orthogonalLoop=1;jettySize=auto;html=1;exitX=1;exitY=0.25;exitDx=0;exitDy=0;entryX=0;entryY=0.5;entryDx=0;entryDy=0;" edge="1" parent="WIyWlLk6GJQsqaUBKTNV-1" source="dqEOBBH6msr6GjvKQdUE-4" target="dqEOBBH6msr6GjvKQdUE-9">
          <mxGeometry relative="1" as="geometry" />
        </mxCell>
        <mxCell id="dqEOBBH6msr6GjvKQdUE-29" style="edgeStyle=orthogonalEdgeStyle;rounded=0;orthogonalLoop=1;jettySize=auto;html=1;entryX=0;entryY=0.5;entryDx=0;entryDy=0;exitX=1.007;exitY=0.143;exitDx=0;exitDy=0;exitPerimeter=0;" edge="1" parent="WIyWlLk6GJQsqaUBKTNV-1" source="dqEOBBH6msr6GjvKQdUE-4" target="UPsKfftQwJRPj4qGPjUT-10">
          <mxGeometry relative="1" as="geometry">
            <mxPoint x="227" y="80" as="sourcePoint" />
            <Array as="points">
              <mxPoint x="350" y="90" />
              <mxPoint x="350" y="50" />
              <mxPoint x="460" y="50" />
              <mxPoint x="460" y="-70" />
            </Array>
          </mxGeometry>
        </mxCell>
        <mxCell id="dqEOBBH6msr6GjvKQdUE-33" value="utilise" style="edgeStyle=orthogonalEdgeStyle;rounded=0;orthogonalLoop=1;jettySize=auto;html=1;exitX=0.75;exitY=0;exitDx=0;exitDy=0;" edge="1" parent="WIyWlLk6GJQsqaUBKTNV-1" source="dqEOBBH6msr6GjvKQdUE-4" target="UPsKfftQwJRPj4qGPjUT-67">
          <mxGeometry relative="1" as="geometry">
            <Array as="points">
              <mxPoint x="165" y="60" />
              <mxPoint x="330" y="60" />
              <mxPoint x="330" y="-130" />
              <mxPoint x="1280" y="-130" />
            </Array>
          </mxGeometry>
        </mxCell>
      </root>
    </mxGraphModel>
  </diagram>
</mxfile>
